<?xml version="1.0" standalone="no"?>
<!DOCTYPE svg PUBLIC "-//W3C//DTD SVG 20010904//EN"
 "http://www.w3.org/TR/2001/REC-SVG-20010904/DTD/svg10.dtd">
<svg version="1.0" xmlns="http://www.w3.org/2000/svg"
 width="248.000000pt" height="248.000000pt" viewBox="0 0 248.000000 248.000000"
 preserveAspectRatio="xMidYMid meet">
<metadata>
Created by potrace 1.11, written by Peter Selinger 2001-2013
</metadata>
<g transform="translate(0.000000,248.000000) scale(0.100000,-0.100000)"
fill="#000000" stroke="none">
<path d="M0 2362 c0 -99 3 -121 16 -126 8 -3 13 -2 10 2 -3 5 18 7 47 5 35 -2
56 -8 66 -20 13 -17 13 -17 7 0 -6 17 -2 18 51 12 32 -4 67 -7 77 -7 14 1 16
-2 7 -11 -6 -6 -11 -15 -11 -20 0 -5 9 1 20 14 10 13 19 19 20 14 0 -6 21 -11
47 -12 45 -2 68 -17 56 -37 -3 -5 -1 -6 5 -2 6 4 8 14 5 24 -6 15 -5 15 10 3
9 -7 17 -11 17 -8 0 4 19 0 90 -18 8 -2 19 -4 24 -4 5 -1 2 -9 -5 -18 -12 -16
-12 -17 2 -6 9 7 20 9 24 5 5 -4 5 -1 1 6 -8 13 6 17 18 5 6 -7 29 -13 54 -15
6 -1 13 -11 13 -22 1 -15 2 -17 6 -5 3 11 11 15 23 12 11 -3 17 -10 13 -16 -3
-5 -1 -7 5 -3 11 7 87 -18 167 -56 21 -9 23 -14 13 -27 -8 -10 -4 -9 10 3 13
12 22 14 22 7 0 -7 4 -9 10 -6 6 3 10 1 10 -4 0 -6 3 -10 8 -9 17 4 102 -43
96 -54 -4 -6 -3 -8 3 -5 13 8 93 -30 93 -43 0 -6 6 -9 13 -7 6 1 11 -3 10 -10
-2 -6 5 -11 15 -10 28 2 72 -32 65 -51 -4 -14 -3 -14 5 -3 9 12 19 8 61 -24
28 -22 51 -46 52 -55 0 -9 2 -10 5 -3 5 12 9 9 88 -59 17 -15 35 -28 39 -28 5
0 5 -4 2 -10 -3 -5 -2 -10 2 -10 15 0 83 -67 76 -74 -3 -3 0 -6 8 -6 20 0 70
-59 62 -73 -3 -7 -3 -9 2 -5 6 6 46 -30 80 -74 6 -7 26 -33 45 -58 19 -25 38
-47 43 -48 4 -2 5 -8 1 -13 -3 -5 -1 -9 4 -9 10 0 72 -90 72 -104 0 -4 -5 -4
-12 0 -7 4 -8 3 -4 -5 4 -6 11 -9 16 -6 13 8 42 -53 34 -68 -4 -7 -4 -9 1 -5
10 9 45 -35 45 -56 0 -9 6 -16 13 -16 8 0 7 -4 -3 -10 -13 -9 -13 -10 0 -10
12 0 41 -45 41 -64 0 -3 11 -27 24 -53 18 -37 21 -52 12 -68 -9 -18 -9 -19 6
-6 15 12 17 11 18 -5 1 -11 1 -25 0 -33 -2 -7 2 -11 6 -8 5 3 15 -15 23 -41 7
-26 12 -47 9 -48 -2 0 3 -9 11 -19 11 -14 11 -17 1 -11 -9 6 -9 2 2 -15 9 -13
17 -28 18 -34 1 -5 3 -14 5 -20 12 -34 31 -135 26 -136 -4 -1 -11 0 -17 1 -5
1 -6 -2 -2 -7 5 -4 13 -9 18 -9 22 -3 23 -5 9 -14 -12 -8 -12 -10 -1 -10 11 0
11 -3 1 -15 -7 -8 -17 -12 -23 -8 -6 3 -7 1 -3 -6 6 -9 11 -9 21 -1 9 8 15 8
20 0 3 -5 0 -10 -7 -10 -10 0 -10 -2 1 -9 9 -6 10 -11 2 -15 -6 -4 -16 -4 -23
0 -7 5 -8 3 -4 -5 5 -7 15 -10 23 -7 11 4 13 2 9 -9 -3 -8 0 -15 7 -15 8 0 6
-4 -3 -10 -12 -8 -12 -10 -1 -10 8 0 12 -3 8 -6 -3 -3 -2 -17 3 -30 6 -16 6
-24 -1 -24 -6 0 -7 -5 -2 -13 13 -21 10 -61 -6 -75 -14 -11 -14 -11 2 -6 10 4
17 3 16 -2 -1 -5 0 -11 1 -14 6 -15 4 -100 -3 -100 -4 0 -5 -5 -2 -10 4 -6 57
-10 127 -10 l121 0 -7 127 c-3 71 -8 137 -10 149 -2 12 -7 45 -11 75 -21 170
-103 466 -171 616 -119 263 -209 410 -379 618 -210 256 -547 521 -822 646 -26
12 -76 35 -111 50 -159 73 -464 157 -632 175 -36 3 -68 8 -71 10 -3 1 -65 6
-137 10 l-132 6 0 -120z"/>
<path d="M166 2222 c-3 -5 1 -9 9 -9 8 0 12 4 9 9 -3 4 -7 8 -9 8 -2 0 -6 -4
-9 -8z"/>
<path d="M496 2167 c3 -10 9 -15 12 -12 3 3 0 11 -7 18 -10 9 -11 8 -5 -6z"/>
<path d="M615 2140 c-3 -5 -1 -10 4 -10 6 0 11 5 11 10 0 6 -2 10 -4 10 -3 0
-8 -4 -11 -10z"/>
<path d="M815 2060 c3 -5 8 -10 11 -10 2 0 4 5 4 10 0 6 -5 10 -11 10 -5 0 -7
-4 -4 -10z"/>
<path d="M855 2049 c-4 -6 -5 -12 -2 -15 2 -3 7 2 10 11 7 17 1 20 -8 4z"/>
<path d="M1097 1929 c7 -7 15 -10 18 -7 3 3 -2 9 -12 12 -14 6 -15 5 -6 -5z"/>
<path d="M1231 1844 c0 -11 3 -14 6 -6 3 7 2 16 -1 19 -3 4 -6 -2 -5 -13z"/>
<path d="M1275 1820 c3 -5 8 -10 11 -10 2 0 4 5 4 10 0 6 -5 10 -11 10 -5 0
-7 -4 -4 -10z"/>
<path d="M0 1654 c0 -94 3 -125 11 -114 6 8 12 11 15 5 2 -5 30 -9 61 -9 32 1
66 -3 77 -8 13 -7 16 -7 12 1 -4 6 -2 11 3 11 6 0 11 -4 11 -8 0 -5 13 -7 30
-6 17 1 30 -2 30 -7 0 -4 7 -5 17 -2 10 4 14 2 10 -4 -5 -7 0 -9 14 -6 12 4
25 0 30 -8 6 -10 9 -10 9 -1 0 6 5 12 11 12 5 0 7 -5 3 -12 -4 -7 -3 -8 4 -4
16 10 92 -12 92 -27 0 -7 4 -6 10 3 9 14 15 7 11 -14 -1 -5 5 -4 13 4 12 9 16
10 16 0 0 -7 6 -10 14 -7 7 3 23 -1 34 -8 10 -8 22 -11 26 -8 6 7 10 -11 7
-37 -2 -13 -1 -13 8 0 5 8 7 18 5 22 -3 4 0 8 5 8 6 0 11 -5 11 -10 0 -6 3 -9
8 -8 4 1 35 -11 69 -27 45 -21 60 -32 56 -44 -5 -13 -3 -14 7 -4 10 9 19 9 41
-3 16 -8 29 -19 29 -24 0 -5 11 -12 25 -16 23 -6 30 -15 26 -37 -1 -5 3 -6 9
-2 19 11 52 -5 45 -23 -3 -9 -3 -13 1 -10 10 11 45 -12 38 -24 -5 -7 -2 -8 5
-4 7 5 20 1 29 -8 9 -10 26 -24 37 -32 13 -9 15 -13 5 -12 -8 2 -18 7 -21 11
-3 4 -11 2 -17 -6 -9 -10 -7 -13 11 -14 48 -1 58 -3 52 -13 -3 -5 -1 -10 5
-10 10 0 70 -53 70 -63 0 -3 15 -21 33 -39 53 -58 83 -92 72 -86 -6 4 -11 -2
-11 -12 0 -12 4 -16 11 -10 11 10 58 -51 58 -75 0 -8 4 -12 8 -9 11 6 75 -117
71 -136 -2 -8 0 -12 4 -7 8 8 55 -85 57 -115 1 -10 4 -18 8 -18 4 0 9 -9 12
-21 5 -18 4 -19 -12 -7 -9 7 -7 3 6 -9 15 -14 20 -28 16 -39 -4 -12 -3 -15 5
-10 7 4 12 1 13 -6 0 -7 3 -24 6 -38 3 -14 6 -35 7 -47 1 -11 4 -19 8 -16 5 2
8 -1 8 -6 0 -6 -5 -11 -11 -11 -6 0 -3 -7 5 -16 21 -20 20 -40 -1 -54 -17 -10
-17 -10 1 -8 10 2 21 -3 24 -11 2 -8 0 -11 -5 -8 -5 3 -10 0 -10 -8 0 -8 4
-12 9 -9 4 3 8 -5 9 -18 0 -13 2 -34 5 -47 2 -14 -1 -28 -8 -33 -10 -6 -10 -8
0 -8 7 0 10 -4 7 -10 -3 -5 -2 -10 2 -10 5 0 8 -19 8 -42 l0 -43 119 -3 118
-3 -6 105 c-8 113 -9 121 -32 241 -92 481 -401 921 -829 1180 -204 123 -446
207 -695 241 -14 2 -69 7 -122 10 l-98 6 0 -128z"/>
<path d="M1470 1655 c5 -7 8 -14 5 -17 -3 -2 2 -5 10 -5 10 0 12 4 5 12 -5 7
-8 14 -5 17 3 2 -2 5 -10 5 -10 0 -12 -4 -5 -12z"/>
<path d="M1516 1598 c3 -5 10 -6 15 -3 13 9 11 12 -6 12 -8 0 -12 -4 -9 -9z"/>
<path d="M1587 1548 c-16 -12 -15 -13 7 -13 15 0 22 5 19 13 -3 6 -6 12 -7 12
-1 0 -10 -6 -19 -12z"/>
<path d="M56 1518 c3 -5 10 -6 15 -3 13 9 11 12 -6 12 -8 0 -12 -4 -9 -9z"/>
<path d="M415 1460 c3 -5 8 -10 11 -10 2 0 4 5 4 10 0 6 -5 10 -11 10 -5 0 -7
-4 -4 -10z"/>
<path d="M1686 1438 c3 -5 10 -6 15 -3 13 9 11 12 -6 12 -8 0 -12 -4 -9 -9z"/>
<path d="M1714 1382 c4 -3 14 -7 22 -8 9 -1 13 0 10 4 -4 3 -14 7 -22 8 -9 1
-13 0 -10 -4z"/>
<path d="M695 1350 c-3 -6 1 -7 9 -4 18 7 21 14 7 14 -6 0 -13 -4 -16 -10z"/>
<path d="M1777 1325 c3 -8 9 -12 14 -9 12 7 11 11 -5 17 -10 4 -13 1 -9 -8z"/>
<path d="M750 1326 c0 -2 7 -6 15 -10 8 -3 15 -1 15 4 0 6 -7 10 -15 10 -8 0
-15 -2 -15 -4z"/>
<path d="M1789 1283 c-13 -16 -12 -17 4 -4 9 7 17 15 17 17 0 8 -8 3 -21 -13z"/>
<path d="M785 1280 c-3 -6 1 -7 9 -4 18 7 21 14 7 14 -6 0 -13 -4 -16 -10z"/>
<path d="M1830 1256 c0 -2 7 -9 15 -16 13 -11 14 -10 9 4 -5 14 -24 23 -24 12z"/>
<path d="M915 1200 c3 -5 8 -10 11 -10 2 0 4 5 4 10 0 6 -5 10 -11 10 -5 0 -7
-4 -4 -10z"/>
<path d="M1853 1195 c0 -8 4 -12 9 -9 5 3 6 10 3 15 -9 13 -12 11 -12 -6z"/>
<path d="M1870 1161 c0 -6 4 -13 10 -16 6 -3 7 1 4 9 -7 18 -14 21 -14 7z"/>
<path d="M1895 1129 c-4 -6 -5 -12 -2 -15 2 -3 7 2 10 11 7 17 1 20 -8 4z"/>
<path d="M1915 1080 c-3 -5 -1 -10 4 -10 6 0 11 5 11 10 0 6 -2 10 -4 10 -3 0
-8 -4 -11 -10z"/>
<path d="M2 964 c3 -106 5 -119 20 -118 10 1 16 -1 13 -5 -2 -4 15 -7 38 -7
25 1 42 -4 42 -11 0 -6 4 -15 8 -20 5 -4 8 -3 7 2 -6 28 0 34 26 25 14 -6 39
-12 57 -15 17 -4 37 -11 44 -16 7 -6 16 -8 22 -5 5 4 16 -1 25 -9 8 -9 18 -16
21 -15 20 1 25 -2 26 -17 0 -10 3 -13 5 -6 7 16 54 -5 54 -24 0 -7 5 -13 11
-13 5 0 7 5 4 11 -6 8 17 -1 45 -19 2 -2 -2 -8 -10 -13 -12 -8 -10 -9 7 -4 15
4 29 -2 47 -20 14 -14 26 -23 26 -20 0 3 6 0 14 -7 8 -7 12 -16 9 -20 -2 -5 1
-8 6 -8 14 0 61 -41 61 -53 0 -5 10 -17 23 -28 19 -16 20 -20 7 -30 -13 -9
-13 -10 2 -5 26 8 60 -43 45 -69 -9 -18 -9 -19 6 -6 15 11 17 11 17 -2 0 -8
-6 -18 -12 -21 -7 -3 -4 -4 7 -3 21 2 58 -57 50 -81 -3 -7 0 -10 5 -7 6 3 10
1 10 -4 0 -6 -4 -11 -10 -11 -5 0 -10 -5 -10 -11 0 -5 5 -7 10 -4 13 8 36 -47
44 -104 3 -24 8 -46 11 -49 3 -3 -1 -12 -8 -20 -7 -10 -8 -13 -1 -9 8 4 13 -5
16 -28 2 -19 0 -35 -5 -35 -5 0 -4 -7 3 -15 10 -12 37 -15 127 -15 l114 0 -5
73 c-16 211 -87 404 -214 572 -188 253 -467 406 -787 431 l-76 6 3 -118z"/>
<path d="M1955 1050 c6 -30 16 -40 12 -12 -2 12 -6 24 -10 28 -3 4 -4 -4 -2
-16z"/>
<path d="M1997 949 c7 -7 15 -10 18 -7 3 3 -2 9 -12 12 -14 6 -15 5 -6 -5z"/>
<path d="M1251 847 c-13 -21 -12 -21 5 -5 10 10 16 20 13 22 -3 3 -11 -5 -18
-17z"/>
<path d="M2020 845 c0 -2 6 -8 13 -14 10 -8 14 -7 14 2 0 8 -6 14 -14 14 -7 0
-13 -1 -13 -2z"/>
<path d="M76 818 c3 -5 10 -6 15 -3 13 9 11 12 -6 12 -8 0 -12 -4 -9 -9z"/>
<path d="M190 786 c0 -2 7 -7 16 -10 8 -3 12 -2 9 4 -6 10 -25 14 -25 6z"/>
<path d="M1304 742 c4 -3 14 -7 22 -8 9 -1 13 0 10 4 -4 3 -14 7 -22 8 -9 1
-13 0 -10 -4z"/>
<path d="M2070 741 c0 -6 4 -13 10 -16 6 -3 7 1 4 9 -7 18 -14 21 -14 7z"/>
<path d="M375 720 c3 -5 8 -10 11 -10 2 0 4 5 4 10 0 6 -5 10 -11 10 -5 0 -7
-4 -4 -10z"/>
<path d="M1335 711 c-3 -5 0 -13 6 -17 7 -4 9 -3 5 4 -3 5 0 13 6 15 9 4 10 6
1 6 -6 1 -14 -3 -18 -8z"/>
<path d="M2095 700 c-3 -6 1 -7 9 -4 18 7 21 14 7 14 -6 0 -13 -4 -16 -10z"/>
<path d="M496 638 c3 -5 10 -6 15 -3 13 9 11 12 -6 12 -8 0 -12 -4 -9 -9z"/>
<path d="M1395 580 c3 -5 8 -10 11 -10 2 0 4 5 4 10 0 6 -5 10 -11 10 -5 0 -7
-4 -4 -10z"/>
<path d="M590 576 c0 -2 7 -9 15 -16 9 -7 15 -8 15 -2 0 5 -7 12 -15 16 -8 3
-15 4 -15 2z"/>
<path d="M615 520 c3 -5 8 -10 11 -10 2 0 4 5 4 10 0 6 -5 10 -11 10 -5 0 -7
-4 -4 -10z"/>
<path d="M1490 300 c0 -5 5 -10 11 -10 5 0 7 5 4 10 -3 6 -8 10 -11 10 -2 0
-4 -4 -4 -10z"/>
<path d="M2196 262 c-3 -5 1 -9 9 -9 8 0 12 4 9 9 -3 4 -7 8 -9 8 -2 0 -6 -4
-9 -8z"/>
<path d="M794 206 c1 -14 4 -28 7 -31 3 -3 5 6 5 19 -1 14 -4 28 -7 31 -3 3
-5 -6 -5 -19z"/>
<path d="M1509 177 c6 -8 7 -18 3 -22 -4 -5 -1 -5 6 -1 10 6 10 11 1 22 -6 8
-14 14 -16 14 -3 0 0 -6 6 -13z"/>
<path d="M2210 179 c0 -5 5 -7 10 -4 6 3 10 8 10 11 0 2 -4 4 -10 4 -5 0 -10
-5 -10 -11z"/>
<path d="M796 122 c-3 -5 1 -9 9 -9 8 0 12 4 9 9 -3 4 -7 8 -9 8 -2 0 -6 -4
-9 -8z"/>
<path d="M1515 71 c-3 -5 -2 -12 3 -15 5 -3 9 1 9 9 0 17 -3 19 -12 6z"/>
<path d="M2217 59 c7 -7 15 -10 18 -7 3 3 -2 9 -12 12 -14 6 -15 5 -6 -5z"/>
<path d="M806 38 c3 -5 10 -6 15 -3 13 9 11 12 -6 12 -8 0 -12 -4 -9 -9z"/>
</g>
</svg>
