<svg width="13" height="13" xmlns="http://www.w3.org/2000/svg">
 <!-- Created with SVG Editor - http://github.com/mzalive/SVG Editor/ -->
 <g>
  <title>background</title>
  <rect fill="none" id="canvas_background" height="15" width="15" y="-1" x="-1"/>
 </g>
 <g>
  <title>Layer 1</title>
  <path id="svg_3" d="m1,308.811273l0,0c0,-5.627036 4.561615,-10.188651 10.188651,-10.188651l0,0c2.702197,0 5.293721,1.073443 7.204463,2.984186c1.910743,1.910743 2.984188,4.502266 2.984188,7.204465l0,0c0,5.627035 -4.561615,10.188651 -10.188651,10.188651l0,0c-5.627035,0 -10.188651,-4.561615 -10.188651,-10.188651zm5.094325,0l0,0c0,2.813517 2.280809,5.094325 5.094325,5.094325c2.813519,0 5.094325,-2.280808 5.094325,-5.094325c0,-2.813517 -2.280808,-5.094325 -5.094325,-5.094325l0,0c-2.813517,0 -5.094325,2.280809 -5.094325,5.094325z" fill-opacity="null" stroke-opacity="null" stroke-width="1.5" stroke="#e62338" fill="#e62338"/>
  <path stroke="#e62338" id="svg_4" d="m0.75,13.366798l0,0c0,-6.981693 5.659782,-12.641474 12.641474,-12.641474l0,0c3.352726,0 6.568136,1.331865 8.938871,3.702601c2.370737,2.370737 3.702604,5.586145 3.702604,8.938873l0,0c0,6.981692 -5.659782,12.641474 -12.641474,12.641474l0,0c-6.981692,0 -12.641474,-5.659782 -12.641474,-12.641474zm6.320737,0l0,0c0,3.490846 2.829892,6.320737 6.320737,6.320737c3.490847,0 6.320737,-2.829892 6.320737,-6.320737c0,-3.490846 -2.829892,-6.320737 -6.320737,-6.320737l0,0c-3.490845,0 -6.320737,2.829892 -6.320737,6.320737z" fill-opacity="null" stroke-opacity="null" stroke-width="1.5" fill="#e62338"/>
 </g>
</svg>